<svg xmlns="http://www.w3.org/2000/svg" width="32" height="32" viewBox="0 0 32 32">
  <!-- Bílý glow underlayer (kontrast na obojí pozadí) -->
  <g fill="#fff" stroke="#fff" stroke-width="2.4" stroke-linejoin="round" stroke-linecap="round" opacity="0.7">
    <line x1="2.5" y1="2.5" x2="9" y2="9"/>
    <polygon points="6,9 10,5 18,13 14,17"/>
    <rect x="14" y="13" width="12" height="11" rx="1.5"/>
    <circle cx="19" cy="18" r="1.2"/>
    <rect x="15" y="24" width="10" height="5" rx="1.2"/>
    <path d="M 24 26.5 Q 29 29.5 29.5 27 Q 31 24 29 23" fill="none"/>
  </g>
  <!-- Černý inkoustový foreground (sám strojek) -->
  <g fill="#0a0a0a" stroke="#0a0a0a" stroke-width="0.6" stroke-linejoin="round" stroke-linecap="round">
    <line x1="2.5" y1="2.5" x2="9" y2="9" stroke-width="1.7"/>
    <polygon points="6,9 10,5 18,13 14,17"/>
    <rect x="14" y="13" width="12" height="11" rx="1.5"/>
    <circle cx="19" cy="18" r="1.2" fill="none" stroke-width="0.8"/>
    <rect x="15" y="24" width="10" height="5" rx="1.2"/>
    <path d="M 24 26.5 Q 29 29.5 29.5 27 Q 31 24 29 23" fill="none" stroke-width="1.3"/>
  </g>
</svg>
